<svg width="202" height="41" viewBox="0 0 202 41" fill="none" xmlns="http://www.w3.org/2000/svg">
<path d="M0 0H178L160 41H0V0Z" fill="#4434C9"/>
<path d="M184 0H190L172 41H166L184 0Z" fill="#4434C9"/>
<path d="M196 0H202L184 41H178L196 0Z" fill="#4434C9"/>
<path d="M25.71 17.676V19.674H32.424V17.676H25.71ZM15.954 13.5V15.264H24.054V13.5H15.954ZM15.774 20.664V22.482H24.036V20.664H15.774ZM15.72 17.514V19.296H24.198V17.514H15.72ZM28.626 18.54V28.53H30.714V18.54H28.626ZM18.96 11.862V14.292H21.066V11.862H18.96ZM18.96 19.188V28.602H21.066V19.188H18.96ZM24.738 13.14V19.422C24.738 21.888 24.54 24.966 22.452 27.18C22.938 27.45 23.73 28.188 24 28.656C26.448 26.118 26.79 22.14 26.79 19.458V14.166C27.114 14.112 27.24 14.022 27.258 13.842L24.738 13.14ZM30.624 11.898C29.346 12.582 27.222 13.23 25.296 13.662C25.548 14.076 25.854 14.832 25.962 15.3C28.068 14.904 30.516 14.292 32.352 13.464L30.624 11.898ZM20.904 22.554L19.752 23.49C20.418 24.084 21.786 25.434 22.38 26.154L23.622 24.606C23.19 24.246 21.462 22.896 20.904 22.554ZM16.854 15.534C17.142 16.218 17.376 17.136 17.412 17.73L19.176 17.262C19.086 16.668 18.834 15.786 18.51 15.138L16.854 15.534ZM21.336 15.102C21.174 15.732 20.868 16.65 20.616 17.262L22.326 17.622C22.596 17.064 22.902 16.29 23.244 15.462L21.336 15.102ZM18.978 21.726C18.186 23.31 16.692 25.056 15.27 25.974C15.72 26.316 16.35 27.036 16.692 27.504C18.132 26.334 19.626 24.264 20.508 22.284L18.978 21.726ZM36.402 12.726V14.922H41.496V12.726H36.402ZM40.434 12.726C40.434 16.398 41.226 24.444 48.084 28.566C48.462 28.026 49.326 27.072 49.83 26.676C43.152 22.77 42.666 16.146 42.666 12.726H40.434ZM39.66 16.668C38.688 21.438 36.528 24.93 32.766 26.838C33.324 27.234 34.332 28.134 34.728 28.602C38.49 26.334 40.884 22.464 42.144 17.118L39.66 16.668ZM55.968 16.848V18.846H66.75V16.848H55.968ZM63.15 17.838V26.19C63.15 26.46 63.042 26.55 62.7 26.568C62.376 26.568 61.188 26.568 60.144 26.514C60.432 27.072 60.774 27.954 60.882 28.53C62.394 28.53 63.492 28.494 64.266 28.188C65.04 27.882 65.274 27.324 65.274 26.226V17.838H63.15ZM53.844 15.984C52.998 17.964 51.522 19.854 49.992 21.078C50.406 21.564 51.072 22.626 51.306 23.094C53.07 21.564 54.834 19.08 55.914 16.668L53.844 15.984ZM57.03 20.016V21.762H59.982V23.562H57.03V25.308H61.944V20.016H57.03ZM55.95 20.016V26.334H57.948V20.016H55.95ZM50.55 12.888V14.85H66.642V12.888H50.55ZM54.33 11.718V16.182H56.454V11.718H54.33ZM60.63 11.718V16.182H62.79V11.718H60.63ZM52.404 20.16V28.62H54.51V18.072V18.054L52.404 20.16ZM73.86 15.948L73.878 18.108C74.94 18.18 75.966 18.216 77.028 18.216C79.188 18.198 81.456 18.054 83.346 17.766V15.534C81.474 15.93 79.224 16.11 77.028 16.11C75.93 16.11 74.904 16.056 73.86 15.948ZM80.718 12.924H78.144C78.198 13.266 78.252 13.824 78.252 14.112C78.27 14.652 78.288 15.858 78.288 17.226C78.288 19.818 78.522 22.842 78.522 24.084C78.522 25.146 78.144 25.722 77.046 25.722C76.074 25.722 75.354 25.398 75.354 24.66C75.354 23.976 76.056 23.562 77.082 23.562C79.116 23.562 80.934 24.768 83.004 26.694L84.228 24.804C82.824 23.508 80.646 21.816 77.262 21.816C74.796 21.816 73.248 23.076 73.248 24.912C73.248 26.802 74.796 27.828 77.298 27.828C79.89 27.828 80.826 26.46 80.826 24.57C80.826 22.86 80.538 20.52 80.538 17.208C80.538 15.912 80.574 14.67 80.61 14.076C80.628 13.698 80.664 13.266 80.718 12.924ZM71.934 13.104L69.432 12.906C69.414 13.464 69.342 14.166 69.27 14.67C69.054 16.056 68.514 19.458 68.514 22.176C68.514 24.606 68.874 26.676 69.234 27.918L71.268 27.774C71.25 27.522 71.25 27.216 71.25 27.018C71.232 26.838 71.286 26.442 71.34 26.19C71.538 25.2 72.132 23.382 72.636 21.888L71.52 21.006C71.268 21.618 70.962 22.23 70.71 22.86C70.656 22.5 70.638 22.032 70.638 21.69C70.638 19.89 71.232 15.93 71.502 14.724C71.574 14.4 71.79 13.464 71.934 13.104ZM86.928 14.22V16.74C87.432 16.704 88.404 16.668 89.16 16.668H97.26V25.56C97.26 26.226 97.242 26.874 97.224 27.414H99.834C99.798 26.856 99.744 25.92 99.744 25.29V15.966C99.744 15.426 99.78 14.724 99.798 14.292C99.492 14.31 98.754 14.346 98.232 14.346H89.16C88.53 14.346 87.612 14.292 86.928 14.22ZM86.712 23.994V26.586C87.306 26.514 88.314 26.478 89.016 26.478H98.682V24.102H88.944C88.134 24.102 87.324 24.048 86.712 23.994ZM104.136 14.076L104.712 16.164C106.278 16.128 108.924 16.056 110.976 15.768C112.362 15.57 113.802 15.336 114.918 15.048C115.206 14.976 115.692 14.85 116.304 14.688L114.81 12.708C113.91 13.14 112.092 13.536 110.274 13.806C108.294 14.094 105.522 14.112 104.136 14.076ZM104.91 26.496L107.214 28.044C110.688 25.956 111.876 22.878 111.876 19.242C111.876 19.242 111.876 16.848 111.876 15.3L109.518 15.57C109.518 18.126 109.518 19.296 109.518 19.296C109.518 22.662 108.096 25.038 104.91 26.496ZM102.786 18.396V20.718C103.254 20.682 103.92 20.646 104.478 20.646C105.54 20.646 115.332 20.646 116.466 20.646C116.97 20.646 117.564 20.682 118.05 20.718V18.396C117.654 18.432 116.808 18.486 116.43 18.486C115.224 18.486 105.594 18.486 104.46 18.486C103.884 18.486 103.29 18.432 102.786 18.396ZM122.694 13.194V15.534C123.216 15.48 123.972 15.462 124.566 15.462C125.628 15.462 130.452 15.462 131.442 15.462C132.108 15.462 132.954 15.498 133.422 15.534V13.194C132.936 13.266 132.054 13.302 131.478 13.302C130.434 13.302 125.7 13.302 124.566 13.302C123.954 13.302 123.18 13.266 122.694 13.194ZM134.952 18.432L133.35 17.424C133.098 17.55 132.612 17.622 132.018 17.622C130.794 17.622 124.35 17.622 123.126 17.622C122.55 17.622 121.794 17.568 121.02 17.496V19.836C121.776 19.782 122.676 19.764 123.126 19.764C124.728 19.764 130.902 19.764 131.802 19.764C131.496 20.754 130.92 21.888 129.966 22.86C128.58 24.282 126.438 25.452 123.72 26.028L125.52 28.062C127.824 27.396 130.128 26.19 131.946 24.156C133.278 22.68 134.052 20.916 134.61 19.17C134.664 18.99 134.826 18.666 134.952 18.432ZM144.024 22.374H145.878L146.346 16.218L146.436 13.536H143.466L143.556 16.218L144.024 22.374ZM144.96 27.18C145.86 27.18 146.544 26.514 146.544 25.578C146.544 24.642 145.86 23.994 144.96 23.994C144.042 23.994 143.358 24.642 143.358 25.578C143.358 26.514 144.024 27.18 144.96 27.18Z" fill="white"/>
</svg>
