<svg width="166" height="48" viewBox="0 0 166 48" fill="none" xmlns="http://www.w3.org/2000/svg">
<path d="M31 4H155L166 24.5L155 44H31V4Z" fill="#4434C9"/>
<path d="M35.7113 3.71539L47.4226 24L35.7113 44.2846L12.2887 44.2846L0.57735 24L12.2887 3.71539L35.7113 3.71539Z" fill="white" stroke="#4434C9"/>
<path d="M18 24L15 19L18 14L30 14L33 19L27 29L21 29L27 19L21 19L18 24Z" fill="#4434C9"/>
<path opacity="0.4" d="M30 24L33 29L30 34L18 34L15 29L21 19L27 19L21 29L27 29L30 24Z" fill="#4434C9"/>
<path d="M61.4382 17.9091H63.8352L68.0028 28.0852H68.1562L72.3239 17.9091H74.7209V31H72.8416V21.527H72.7202L68.8594 30.9808H67.2997L63.4389 21.5206H63.3175V31H61.4382V17.9091ZM80.9506 31.1982C79.9833 31.1982 79.1502 30.9915 78.4513 30.5781C77.7567 30.1605 77.2198 29.5746 76.8405 28.8203C76.4655 28.0618 76.278 27.1733 76.278 26.1548C76.278 25.1491 76.4655 24.2628 76.8405 23.4957C77.2198 22.7287 77.7482 22.13 78.4258 21.6996C79.1076 21.2692 79.9045 21.054 80.8164 21.054C81.3704 21.054 81.9073 21.1456 82.4272 21.3288C82.9471 21.5121 83.4137 21.7997 83.8271 22.1918C84.2404 22.5838 84.5664 23.093 84.805 23.7195C85.0437 24.3416 85.163 25.098 85.163 25.9886V26.6662H77.3583V25.2344H83.2901C83.2901 24.7315 83.1878 24.2862 82.9833 23.8984C82.7788 23.5064 82.4911 23.1974 82.1204 22.9716C81.7539 22.7457 81.3235 22.6328 80.8292 22.6328C80.2923 22.6328 79.8235 22.7649 79.4229 23.0291C79.0266 23.2891 78.7198 23.63 78.5025 24.0518C78.2894 24.4695 78.1829 24.9233 78.1829 25.4134V26.532C78.1829 27.1882 78.2979 27.7464 78.528 28.2067C78.7624 28.6669 79.0884 29.0185 79.506 29.2614C79.9236 29.5 80.4116 29.6193 80.9698 29.6193C81.332 29.6193 81.6623 29.5682 81.9606 29.4659C82.2589 29.3594 82.5167 29.2017 82.734 28.9929C82.9513 28.7841 83.1175 28.5263 83.2326 28.2195L85.0415 28.5455C84.8967 29.0781 84.6367 29.5447 84.2617 29.9453C83.891 30.3416 83.4244 30.6506 82.8619 30.8722C82.3036 31.0895 81.6665 31.1982 80.9506 31.1982ZM88.4748 25.1705V31H86.5636V21.1818H88.3981V22.7798H88.5195C88.7454 22.2599 89.0991 21.8423 89.5806 21.527C90.0664 21.2116 90.6779 21.054 91.4151 21.054C92.0841 21.054 92.6701 21.1946 93.1729 21.4759C93.6758 21.7528 94.0657 22.1662 94.3427 22.7159C94.6197 23.2656 94.7582 23.9453 94.7582 24.755V31H92.8469V24.9851C92.8469 24.2734 92.6616 23.7173 92.2908 23.3168C91.9201 22.9119 91.4109 22.7095 90.7631 22.7095C90.3199 22.7095 89.9258 22.8054 89.5806 22.9972C89.2397 23.1889 88.9691 23.4702 88.7688 23.8409C88.5728 24.2074 88.4748 24.6506 88.4748 25.1705ZM100.718 34.8864C99.938 34.8864 99.2668 34.7841 98.7043 34.5795C98.1461 34.375 97.6901 34.1044 97.3364 33.7678C96.9828 33.4311 96.7186 33.0625 96.5438 32.6619L98.1866 31.9844C98.3016 32.1719 98.4551 32.37 98.6468 32.5788C98.8428 32.7919 99.107 32.973 99.4394 33.1222C99.7761 33.2713 100.209 33.3459 100.737 33.3459C101.461 33.3459 102.06 33.169 102.533 32.8153C103.006 32.4659 103.243 31.9077 103.243 31.1406V29.2102H103.121C103.006 29.419 102.84 29.6513 102.623 29.907C102.41 30.1626 102.116 30.3842 101.741 30.5717C101.366 30.7592 100.878 30.853 100.277 30.853C99.5012 30.853 98.8024 30.6719 98.1802 30.3097C97.5623 29.9432 97.0722 29.4041 96.71 28.6925C96.3521 27.9766 96.1731 27.0966 96.1731 26.0526C96.1731 25.0085 96.3499 24.1136 96.7036 23.3679C97.0616 22.6222 97.5516 22.0511 98.1738 21.6548C98.796 21.2543 99.5012 21.054 100.29 21.054C100.899 21.054 101.391 21.1562 101.766 21.3608C102.141 21.5611 102.433 21.7955 102.642 22.0639C102.855 22.3324 103.019 22.5689 103.134 22.7734H103.275V21.1818H105.148V31.2173C105.148 32.0611 104.952 32.7536 104.559 33.2947C104.167 33.8359 103.637 34.2365 102.968 34.4964C102.303 34.7564 101.553 34.8864 100.718 34.8864ZM100.699 29.2678C101.248 29.2678 101.713 29.1399 102.092 28.8842C102.476 28.6243 102.765 28.2536 102.961 27.772C103.162 27.2862 103.262 26.7045 103.262 26.027C103.262 25.3665 103.164 24.7848 102.968 24.282C102.772 23.7791 102.484 23.3871 102.105 23.1058C101.726 22.8203 101.257 22.6776 100.699 22.6776C100.123 22.6776 99.644 22.8267 99.2605 23.125C98.8769 23.419 98.5872 23.8196 98.3911 24.3267C98.1994 24.8338 98.1035 25.4006 98.1035 26.027C98.1035 26.6705 98.2015 27.2351 98.3975 27.7209C98.5936 28.2067 98.8833 28.5859 99.2668 28.8587C99.6546 29.1314 100.132 29.2678 100.699 29.2678ZM108.749 27.6697L108.736 25.3366H109.068L112.98 21.1818H115.268L110.807 25.9119H110.506L108.749 27.6697ZM106.991 31V17.9091H108.902V31H106.991ZM113.191 31L109.675 26.3338L110.992 24.9979L115.537 31H113.191ZM120.118 31.1982C119.15 31.1982 118.317 30.9915 117.618 30.5781C116.924 30.1605 116.387 29.5746 116.007 28.8203C115.632 28.0618 115.445 27.1733 115.445 26.1548C115.445 25.1491 115.632 24.2628 116.007 23.4957C116.387 22.7287 116.915 22.13 117.593 21.6996C118.274 21.2692 119.071 21.054 119.983 21.054C120.537 21.054 121.074 21.1456 121.594 21.3288C122.114 21.5121 122.581 21.7997 122.994 22.1918C123.407 22.5838 123.733 23.093 123.972 23.7195C124.211 24.3416 124.33 25.098 124.33 25.9886V26.6662H116.525V25.2344H122.457C122.457 24.7315 122.355 24.2862 122.15 23.8984C121.946 23.5064 121.658 23.1974 121.287 22.9716C120.921 22.7457 120.49 22.6328 119.996 22.6328C119.459 22.6328 118.99 22.7649 118.59 23.0291C118.194 23.2891 117.887 23.63 117.669 24.0518C117.456 24.4695 117.35 24.9233 117.35 25.4134V26.532C117.35 27.1882 117.465 27.7464 117.695 28.2067C117.929 28.6669 118.255 29.0185 118.673 29.2614C119.091 29.5 119.578 29.6193 120.137 29.6193C120.499 29.6193 120.829 29.5682 121.127 29.4659C121.426 29.3594 121.684 29.2017 121.901 28.9929C122.118 28.7841 122.284 28.5263 122.399 28.2195L124.208 28.5455C124.064 29.0781 123.804 29.5447 123.429 29.9453C123.058 30.3416 122.591 30.6506 122.029 30.8722C121.47 31.0895 120.833 31.1982 120.118 31.1982ZM125.73 31V21.1818H127.578V22.7415H127.68C127.859 22.2131 128.174 21.7976 128.626 21.495C129.082 21.1882 129.598 21.0348 130.173 21.0348C130.292 21.0348 130.433 21.0391 130.595 21.0476C130.761 21.0561 130.891 21.0668 130.985 21.0795V22.9077C130.908 22.8864 130.772 22.8629 130.576 22.8374C130.38 22.8075 130.184 22.7926 129.988 22.7926C129.536 22.7926 129.133 22.8885 128.779 23.0803C128.43 23.2678 128.153 23.5298 127.948 23.8665C127.744 24.1989 127.642 24.5781 127.642 25.0043V31H125.73ZM135.799 31.1982C134.831 31.1982 133.998 30.9915 133.299 30.5781C132.605 30.1605 132.068 29.5746 131.689 28.8203C131.314 28.0618 131.126 27.1733 131.126 26.1548C131.126 25.1491 131.314 24.2628 131.689 23.4957C132.068 22.7287 132.596 22.13 133.274 21.6996C133.956 21.2692 134.752 21.054 135.664 21.054C136.218 21.054 136.755 21.1456 137.275 21.3288C137.795 21.5121 138.262 21.7997 138.675 22.1918C139.088 22.5838 139.414 23.093 139.653 23.7195C139.892 24.3416 140.011 25.098 140.011 25.9886V26.6662H132.206V25.2344H138.138C138.138 24.7315 138.036 24.2862 137.831 23.8984C137.627 23.5064 137.339 23.1974 136.968 22.9716C136.602 22.7457 136.171 22.6328 135.677 22.6328C135.14 22.6328 134.671 22.7649 134.271 23.0291C133.875 23.2891 133.568 23.63 133.35 24.0518C133.137 24.4695 133.031 24.9233 133.031 25.4134V26.532C133.031 27.1882 133.146 27.7464 133.376 28.2067C133.61 28.6669 133.936 29.0185 134.354 29.2614C134.772 29.5 135.26 29.6193 135.818 29.6193C136.18 29.6193 136.51 29.5682 136.809 29.4659C137.107 29.3594 137.365 29.2017 137.582 28.9929C137.799 28.7841 137.966 28.5263 138.081 28.2195L139.89 28.5455C139.745 29.0781 139.485 29.5447 139.11 29.9453C138.739 30.3416 138.272 30.6506 137.71 30.8722C137.152 31.0895 136.515 31.1982 135.799 31.1982Z" fill="white"/>
</svg>
