<svg width="19" height="19" viewBox="0 0 19 19" fill="none" xmlns="http://www.w3.org/2000/svg">
<path d="M5.81818 17C6.3174 17 8.22325 16.7959 9.745 16.6212C10.5704 16.5264 11.3591 16.2311 12.0475 15.7661V15.7661C13.1282 15.0362 13.8975 13.929 14.2045 12.6616L14.2789 12.3547C14.3783 11.9443 14.4286 11.5174 14.4286 11.095V11.095C14.4286 9.51741 13.7207 7.99941 12.5 7V7M11.5455 12.2632L10.8997 12.8863C9.91429 13.8371 8.59843 14.3684 7.22915 14.3684H7.0537C5.90448 14.3684 4.7932 13.9571 3.92088 13.2089V13.2089C3.20178 12.5922 2.68073 11.7768 2.42305 10.8652L2.25745 10.2793C2.08663 9.67493 2 9.04991 2 8.42189V6.21053M5.81818 11.4737L5.41551 10.9556C4.6159 9.92689 4.18182 8.66109 4.18182 7.35815V7.22101C4.18182 6.21655 4.46292 5.23214 4.99333 4.37914L5.10261 4.2034C5.57001 3.45173 6.24146 2.84842 7.03866 2.4638V2.4638C7.67139 2.15854 8.36485 2 9.06737 2H12.0909M16.4545 12.7895L16.7305 10.6594C16.9055 9.30832 16.6416 7.93672 15.9777 6.74701L15.6504 6.1605C15.2848 5.50527 14.7426 4.96582 14.0855 4.60352V4.60352C13.4927 4.27668 12.8268 4.10526 12.1499 4.10526H11.7552C11.4342 4.10526 11.1137 4.13316 10.7975 4.18863L10.3276 4.27107C8.99864 4.50423 7.79101 5.18936 6.90909 6.21053V6.21053" stroke="black" stroke-width="3"/>
</svg>
