<svg width="1440" height="77" viewBox="0 0 1440 77" fill="none" xmlns="http://www.w3.org/2000/svg">
<g clip-path="url(#clip0_29344_13348)">
<rect width="1440" height="77" fill="#171717"/>
<path d="M-99.176 31.1L-100.598 31.676C-100.112 32.378 -99.554 33.44 -99.176 34.178L-97.736 33.566C-98.078 32.9 -98.726 31.766 -99.176 31.1ZM-97.034 30.29L-98.456 30.866C-97.97 31.55 -97.394 32.594 -97.016 33.35L-95.594 32.738C-95.9 32.108 -96.566 30.956 -97.034 30.29ZM-103.784 31.262H-106.448C-106.376 31.694 -106.304 32.504 -106.304 32.918C-106.322 37.652 -107.15 40.712 -109.508 43.052C-110.228 43.79 -111.128 44.402 -111.884 44.816L-109.778 46.508C-105.8 43.664 -104.108 40.028 -103.91 32.864C-103.892 32.432 -103.838 31.676 -103.784 31.262ZM-97.682 35.114L-99.23 34.358C-99.662 34.43 -100.13 34.484 -100.598 34.484H-108.932C-109.616 34.484 -110.534 34.43 -111.29 34.358V36.716C-110.534 36.644 -109.526 36.644 -108.914 36.644H-100.13C-100.13 38.588 -100.382 42.188 -100.904 43.322C-101.084 43.754 -101.336 43.952 -101.912 43.952C-102.632 43.952 -103.55 43.862 -104.45 43.7L-104.162 46.112C-103.28 46.184 -102.218 46.256 -101.174 46.256C-99.95 46.256 -99.248 45.788 -98.87 44.87C-98.096 43.034 -97.862 38.012 -97.79 36.068C-97.79 35.87 -97.736 35.402 -97.682 35.114ZM-91.382 31.82L-93.092 33.638C-91.778 34.538 -89.51 36.5 -88.574 37.508L-86.738 35.636C-87.8 34.538 -90.14 32.666 -91.382 31.82ZM-93.65 43.808L-92.12 46.184C-89.6 45.752 -87.278 44.762 -85.442 43.664C-82.544 41.918 -80.15 39.434 -78.8 36.986L-80.186 34.466C-81.338 36.896 -83.678 39.632 -86.756 41.468C-88.502 42.494 -90.824 43.412 -93.65 43.808ZM-64.418 30.722L-65.858 31.316C-65.372 32 -64.814 33.08 -64.436 33.8L-62.996 33.188C-63.338 32.522 -63.968 31.388 -64.418 30.722ZM-62.294 29.912L-63.716 30.488C-63.23 31.172 -62.654 32.216 -62.276 32.972L-60.836 32.36C-61.16 31.73 -61.826 30.578 -62.294 29.912ZM-71.168 37.508L-72.752 39.146C-70.646 40.478 -67.244 42.98 -65.66 44.456L-63.95 42.422C-65.606 41.09 -68.954 38.786 -71.168 37.508ZM-62.69 34.448L-64.526 33.314C-64.922 33.44 -65.534 33.53 -66.092 33.53H-71.204L-72.05 35.564H-65.948C-66.29 36.968 -67.406 39.02 -68.63 40.46C-70.16 42.26 -72.32 44.15 -76.082 45.32L-73.994 47.12C-70.556 45.824 -68.234 43.808 -66.542 41.702C-64.94 39.704 -63.842 37.4 -63.284 35.744C-63.122 35.294 -62.888 34.79 -62.69 34.448ZM-68.648 31.676L-71.24 30.866C-71.402 31.478 -71.798 32.306 -72.068 32.756C-72.968 34.304 -74.642 36.788 -77.792 38.732L-75.848 40.226C-73.274 38.444 -70.97 35.69 -69.746 33.512C-69.53 33.134 -69.08 32.306 -68.648 31.676ZM-51.188 31.928L-54.05 31.352C-54.122 31.946 -54.212 32.522 -54.464 33.422C-55.058 35.51 -56.93 41.414 -57.902 43.718L-55.256 43.628C-54.482 41.756 -52.61 35.96 -51.944 33.944C-51.674 33.134 -51.422 32.468 -51.188 31.928ZM-47.966 37.742L-50.198 38.678C-48.92 40.406 -47.246 44.132 -46.436 46.31L-44.006 45.23C-44.834 43.232 -46.67 39.686 -47.966 37.742ZM-58.082 42.908C-58.658 42.926 -59.45 42.944 -60.062 42.926L-59.63 45.572C-59.072 45.5 -58.388 45.41 -57.938 45.356C-55.508 45.104 -49.316 44.456 -46.652 44.114L-47.174 41.81C-49.694 42.152 -55.58 42.818 -58.082 42.908ZM-38.336 31.262L-39.632 33.242C-38.444 33.908 -36.572 35.114 -35.564 35.816L-34.232 33.836C-35.168 33.17 -37.148 31.91 -38.336 31.262ZM-41.666 44.042L-40.316 46.4C-38.732 46.112 -36.14 45.212 -34.304 44.186C-31.37 42.476 -28.814 40.208 -27.158 37.706L-28.544 35.258C-29.966 37.832 -32.486 40.298 -35.546 42.008C-37.508 43.088 -39.65 43.7 -41.666 44.042ZM-41.108 35.366L-42.404 37.346C-41.198 37.994 -39.326 39.2 -38.318 39.92L-36.986 37.904C-37.922 37.238 -39.902 36.014 -41.108 35.366ZM-12.164 31.532H-14.882C-14.81 32.036 -14.756 32.612 -14.756 33.35C-14.756 34.124 -14.756 35.852 -14.756 36.752C-14.756 39.56 -15.008 40.91 -16.232 42.26C-17.33 43.43 -18.77 44.114 -20.57 44.528L-18.68 46.526C-17.366 46.094 -15.512 45.23 -14.324 43.916C-12.974 42.44 -12.218 40.784 -12.218 36.896C-12.218 36.014 -12.218 34.268 -12.218 33.35C-12.218 32.612 -12.2 32.036 -12.164 31.532ZM-20.498 31.694H-23.108C-23.054 32.108 -23.036 32.738 -23.036 33.062C-23.036 33.854 -23.036 38.102 -23.036 39.128C-23.036 39.686 -23.09 40.388 -23.126 40.712H-20.498C-20.534 40.298 -20.57 39.596 -20.57 39.146C-20.57 38.138 -20.57 33.854 -20.57 33.062C-20.57 32.504 -20.534 32.108 -20.498 31.694ZM-7.682 37.166V40.01C-6.998 39.956 -5.792 39.902 -4.784 39.902C-2.66 39.902 3.262 39.902 4.9 39.902C5.656 39.902 6.574 39.992 7.006 40.01V37.166C6.52 37.202 5.728 37.292 4.882 37.292C3.28 37.292 -2.66 37.292 -4.784 37.292C-5.72 37.292 -7.016 37.22 -7.682 37.166ZM20.8875 30.542L19.4655 31.118C19.9515 31.856 20.4915 32.882 20.8695 33.62L22.3095 33.008C22.0215 32.378 21.3555 31.226 20.8875 30.542ZM23.1555 29.912L21.7335 30.488C22.2015 31.172 22.7955 32.216 23.1735 32.972L24.6135 32.36C24.2895 31.73 23.6235 30.578 23.1555 29.912ZM21.6975 33.746L20.2395 32.648C19.8615 32.774 19.1595 32.882 18.3675 32.882C17.5755 32.882 12.9675 32.882 12.0135 32.882C11.4915 32.882 10.3755 32.81 9.88951 32.738V35.312C10.2855 35.276 11.2755 35.186 12.0135 35.186C12.7875 35.186 17.3775 35.186 18.1335 35.186C17.7195 36.464 16.6215 38.246 15.4335 39.596C13.7415 41.486 10.9695 43.664 8.05351 44.762L9.92551 46.706C12.7155 45.374 15.4335 43.142 17.4495 40.82C18.9975 39.02 20.3295 36.572 21.0675 34.862C21.2295 34.484 21.5535 33.944 21.6975 33.746ZM17.6835 39.326L15.9915 41C17.9175 42.746 19.8795 44.888 21.2115 46.742L23.2635 44.96C22.0935 43.52 19.5375 40.838 17.6835 39.326Z" fill="white"/>
<path d="M86 29.25V47.75" stroke="white" stroke-width="1.5" stroke-linecap="square"/>
<path d="M95.25 38.5L76.75 38.5" stroke="white" stroke-width="1.5" stroke-linecap="square"/>
<path d="M92.541 31.9595L79.4595 45.0409" stroke="white" stroke-width="1.5" stroke-linecap="square"/>
<path d="M92.541 45.0405L79.4595 31.9591" stroke="white" stroke-width="1.5" stroke-linecap="square"/>
<path d="M156.061 36.5895C155.955 36.2443 155.808 35.9354 155.62 35.6626C155.437 35.3857 155.215 35.1491 154.955 34.9531C154.7 34.7571 154.406 34.6101 154.073 34.5121C153.741 34.4098 153.379 34.3587 152.987 34.3587C152.283 34.3587 151.657 34.5355 151.107 34.8892C150.558 35.2429 150.125 35.7628 149.81 36.4489C149.499 37.1307 149.343 37.9616 149.343 38.9418C149.343 39.9304 149.499 40.7678 149.81 41.4538C150.121 42.1399 150.553 42.6619 151.107 43.0199C151.661 43.3736 152.305 43.5504 153.038 43.5504C153.702 43.5504 154.278 43.4226 154.763 43.1669C155.254 42.9112 155.631 42.549 155.895 42.0803C156.159 41.6072 156.291 41.0533 156.291 40.4183L156.828 40.5014H153.274V38.6477H158.586V40.2202C158.586 41.3409 158.347 42.3104 157.87 43.1286C157.393 43.9467 156.737 44.5774 155.901 45.0206C155.066 45.4595 154.107 45.679 153.025 45.679C151.819 45.679 150.76 45.4084 149.848 44.8672C148.94 44.3217 148.231 43.5483 147.719 42.5469C147.212 41.5412 146.959 40.348 146.959 38.9673C146.959 37.9105 147.108 36.9666 147.406 36.1357C147.709 35.3047 148.131 34.5994 148.672 34.0199C149.213 33.4361 149.848 32.9929 150.577 32.6903C151.305 32.3835 152.098 32.2301 152.955 32.2301C153.679 32.2301 154.354 32.3366 154.981 32.5497C155.607 32.7585 156.163 33.0568 156.649 33.4446C157.139 33.8324 157.542 34.2926 157.857 34.8253C158.173 35.358 158.379 35.946 158.477 36.5895H156.061ZM168.411 32.4091H170.783V40.9616C170.783 41.8991 170.561 42.7237 170.118 43.4354C169.679 44.147 169.061 44.7031 168.264 45.1037C167.467 45.5 166.536 45.6982 165.471 45.6982C164.401 45.6982 163.468 45.5 162.671 45.1037C161.874 44.7031 161.256 44.147 160.817 43.4354C160.379 42.7237 160.159 41.8991 160.159 40.9616V32.4091H162.531V40.7635C162.531 41.3089 162.65 41.7947 162.888 42.2209C163.131 42.647 163.472 42.9815 163.911 43.2244C164.35 43.4631 164.87 43.5824 165.471 43.5824C166.072 43.5824 166.592 43.4631 167.031 43.2244C167.474 42.9815 167.815 42.647 168.053 42.2209C168.292 41.7947 168.411 41.3089 168.411 40.7635V32.4091ZM183.398 32.4091V45.5H181.289L175.12 36.5831H175.012V45.5H172.64V32.4091H174.762L180.924 41.3324H181.039V32.4091H183.398ZM189.698 45.5H185.262V32.4091H189.788C191.087 32.4091 192.204 32.6712 193.137 33.1953C194.075 33.7152 194.795 34.4631 195.298 35.4389C195.8 36.4148 196.052 37.5824 196.052 38.9418C196.052 40.3054 195.798 41.4773 195.291 42.4574C194.788 43.4375 194.062 44.1896 193.111 44.7138C192.165 45.2379 191.028 45.5 189.698 45.5ZM187.634 43.4482H189.583C190.495 43.4482 191.256 43.282 191.865 42.9496C192.474 42.6129 192.933 42.1122 193.239 41.4474C193.546 40.7784 193.7 39.9432 193.7 38.9418C193.7 37.9403 193.546 37.1094 193.239 36.4489C192.933 35.7841 192.479 35.2876 191.878 34.9595C191.281 34.6271 190.54 34.4609 189.653 34.4609H187.634V43.4482ZM198.563 45.5H196.032L200.64 32.4091H203.568L208.183 45.5H205.652L202.155 35.0938H202.053L198.563 45.5ZM198.646 40.3672H205.55V42.272H198.646V40.3672ZM209.187 32.4091H212.089L215.976 41.8949H216.129L220.015 32.4091H222.917V45.5H220.642V36.5064H220.52L216.902 45.4616H215.202L211.584 36.4872H211.463V45.5H209.187V32.4091Z" fill="white"/>
<path d="M285 29.25V47.75" stroke="white" stroke-width="1.5" stroke-linecap="square"/>
<path d="M294.25 38.5L275.75 38.5" stroke="white" stroke-width="1.5" stroke-linecap="square"/>
<path d="M291.541 31.9595L278.46 45.0409" stroke="white" stroke-width="1.5" stroke-linecap="square"/>
<path d="M291.541 45.0405L278.46 31.9591" stroke="white" stroke-width="1.5" stroke-linecap="square"/>
<path d="M358.824 31.1L357.402 31.676C357.888 32.378 358.446 33.44 358.824 34.178L360.264 33.566C359.922 32.9 359.274 31.766 358.824 31.1ZM360.966 30.29L359.544 30.866C360.03 31.55 360.606 32.594 360.984 33.35L362.406 32.738C362.1 32.108 361.434 30.956 360.966 30.29ZM354.216 31.262H351.552C351.624 31.694 351.696 32.504 351.696 32.918C351.678 37.652 350.85 40.712 348.492 43.052C347.772 43.79 346.872 44.402 346.116 44.816L348.222 46.508C352.2 43.664 353.892 40.028 354.09 32.864C354.108 32.432 354.162 31.676 354.216 31.262ZM360.318 35.114L358.77 34.358C358.338 34.43 357.87 34.484 357.402 34.484H349.068C348.384 34.484 347.466 34.43 346.71 34.358V36.716C347.466 36.644 348.474 36.644 349.086 36.644H357.87C357.87 38.588 357.618 42.188 357.096 43.322C356.916 43.754 356.664 43.952 356.088 43.952C355.368 43.952 354.45 43.862 353.55 43.7L353.838 46.112C354.72 46.184 355.782 46.256 356.826 46.256C358.05 46.256 358.752 45.788 359.13 44.87C359.904 43.034 360.138 38.012 360.21 36.068C360.21 35.87 360.264 35.402 360.318 35.114ZM366.618 31.82L364.908 33.638C366.222 34.538 368.49 36.5 369.426 37.508L371.262 35.636C370.2 34.538 367.86 32.666 366.618 31.82ZM364.35 43.808L365.88 46.184C368.4 45.752 370.722 44.762 372.558 43.664C375.456 41.918 377.85 39.434 379.2 36.986L377.814 34.466C376.662 36.896 374.322 39.632 371.244 41.468C369.498 42.494 367.176 43.412 364.35 43.808ZM393.582 30.722L392.142 31.316C392.628 32 393.186 33.08 393.564 33.8L395.004 33.188C394.662 32.522 394.032 31.388 393.582 30.722ZM395.706 29.912L394.284 30.488C394.77 31.172 395.346 32.216 395.724 32.972L397.164 32.36C396.84 31.73 396.174 30.578 395.706 29.912ZM386.832 37.508L385.248 39.146C387.354 40.478 390.756 42.98 392.34 44.456L394.05 42.422C392.394 41.09 389.046 38.786 386.832 37.508ZM395.31 34.448L393.474 33.314C393.078 33.44 392.466 33.53 391.908 33.53H386.796L385.95 35.564H392.052C391.71 36.968 390.594 39.02 389.37 40.46C387.84 42.26 385.68 44.15 381.918 45.32L384.006 47.12C387.444 45.824 389.766 43.808 391.458 41.702C393.06 39.704 394.158 37.4 394.716 35.744C394.878 35.294 395.112 34.79 395.31 34.448ZM389.352 31.676L386.76 30.866C386.598 31.478 386.202 32.306 385.932 32.756C385.032 34.304 383.358 36.788 380.208 38.732L382.152 40.226C384.726 38.444 387.03 35.69 388.254 33.512C388.47 33.134 388.92 32.306 389.352 31.676ZM406.812 31.928L403.95 31.352C403.878 31.946 403.788 32.522 403.536 33.422C402.942 35.51 401.07 41.414 400.098 43.718L402.744 43.628C403.518 41.756 405.39 35.96 406.056 33.944C406.326 33.134 406.578 32.468 406.812 31.928ZM410.034 37.742L407.802 38.678C409.08 40.406 410.754 44.132 411.564 46.31L413.994 45.23C413.166 43.232 411.33 39.686 410.034 37.742ZM399.918 42.908C399.342 42.926 398.55 42.944 397.938 42.926L398.37 45.572C398.928 45.5 399.612 45.41 400.062 45.356C402.492 45.104 408.684 44.456 411.348 44.114L410.826 41.81C408.306 42.152 402.42 42.818 399.918 42.908ZM419.664 31.262L418.368 33.242C419.556 33.908 421.428 35.114 422.436 35.816L423.768 33.836C422.832 33.17 420.852 31.91 419.664 31.262ZM416.334 44.042L417.684 46.4C419.268 46.112 421.86 45.212 423.696 44.186C426.63 42.476 429.186 40.208 430.842 37.706L429.456 35.258C428.034 37.832 425.514 40.298 422.454 42.008C420.492 43.088 418.35 43.7 416.334 44.042ZM416.892 35.366L415.596 37.346C416.802 37.994 418.674 39.2 419.682 39.92L421.014 37.904C420.078 37.238 418.098 36.014 416.892 35.366ZM445.836 31.532H443.118C443.19 32.036 443.244 32.612 443.244 33.35C443.244 34.124 443.244 35.852 443.244 36.752C443.244 39.56 442.992 40.91 441.768 42.26C440.67 43.43 439.23 44.114 437.43 44.528L439.32 46.526C440.634 46.094 442.488 45.23 443.676 43.916C445.026 42.44 445.782 40.784 445.782 36.896C445.782 36.014 445.782 34.268 445.782 33.35C445.782 32.612 445.8 32.036 445.836 31.532ZM437.502 31.694H434.892C434.946 32.108 434.964 32.738 434.964 33.062C434.964 33.854 434.964 38.102 434.964 39.128C434.964 39.686 434.91 40.388 434.874 40.712H437.502C437.466 40.298 437.43 39.596 437.43 39.146C437.43 38.138 437.43 33.854 437.43 33.062C437.43 32.504 437.466 32.108 437.502 31.694ZM450.318 37.166V40.01C451.002 39.956 452.208 39.902 453.216 39.902C455.34 39.902 461.262 39.902 462.9 39.902C463.656 39.902 464.574 39.992 465.006 40.01V37.166C464.52 37.202 463.728 37.292 462.882 37.292C461.28 37.292 455.34 37.292 453.216 37.292C452.28 37.292 450.984 37.22 450.318 37.166ZM478.888 30.542L477.466 31.118C477.952 31.856 478.492 32.882 478.87 33.62L480.31 33.008C480.022 32.378 479.356 31.226 478.888 30.542ZM481.156 29.912L479.734 30.488C480.202 31.172 480.796 32.216 481.174 32.972L482.614 32.36C482.29 31.73 481.624 30.578 481.156 29.912ZM479.698 33.746L478.24 32.648C477.862 32.774 477.16 32.882 476.368 32.882C475.576 32.882 470.968 32.882 470.014 32.882C469.492 32.882 468.376 32.81 467.89 32.738V35.312C468.286 35.276 469.276 35.186 470.014 35.186C470.788 35.186 475.378 35.186 476.134 35.186C475.72 36.464 474.622 38.246 473.434 39.596C471.742 41.486 468.97 43.664 466.054 44.762L467.926 46.706C470.716 45.374 473.434 43.142 475.45 40.82C476.998 39.02 478.33 36.572 479.068 34.862C479.23 34.484 479.554 33.944 479.698 33.746ZM475.684 39.326L473.992 41C475.918 42.746 477.88 44.888 479.212 46.742L481.264 44.96C480.094 43.52 477.538 40.838 475.684 39.326Z" fill="white"/>
<path d="M544 29.25V47.75" stroke="white" stroke-width="1.5" stroke-linecap="square"/>
<path d="M553.25 38.5L534.75 38.5" stroke="white" stroke-width="1.5" stroke-linecap="square"/>
<path d="M550.541 31.9595L537.46 45.0409" stroke="white" stroke-width="1.5" stroke-linecap="square"/>
<path d="M550.541 45.0405L537.46 31.9591" stroke="white" stroke-width="1.5" stroke-linecap="square"/>
<path d="M614.061 36.5895C613.955 36.2443 613.808 35.9354 613.62 35.6626C613.437 35.3857 613.215 35.1491 612.955 34.9531C612.7 34.7571 612.406 34.6101 612.073 34.5121C611.741 34.4098 611.379 34.3587 610.987 34.3587C610.283 34.3587 609.657 34.5355 609.107 34.8892C608.558 35.2429 608.125 35.7628 607.81 36.4489C607.499 37.1307 607.343 37.9616 607.343 38.9418C607.343 39.9304 607.499 40.7678 607.81 41.4538C608.121 42.1399 608.553 42.6619 609.107 43.0199C609.661 43.3736 610.305 43.5504 611.038 43.5504C611.702 43.5504 612.278 43.4226 612.763 43.1669C613.254 42.9112 613.631 42.549 613.895 42.0803C614.159 41.6072 614.291 41.0533 614.291 40.4183L614.828 40.5014H611.274V38.6477H616.586V40.2202C616.586 41.3409 616.347 42.3104 615.87 43.1286C615.393 43.9467 614.737 44.5774 613.901 45.0206C613.066 45.4595 612.107 45.679 611.025 45.679C609.819 45.679 608.76 45.4084 607.848 44.8672C606.94 44.3217 606.231 43.5483 605.719 42.5469C605.212 41.5412 604.959 40.348 604.959 38.9673C604.959 37.9105 605.108 36.9666 605.406 36.1357C605.709 35.3047 606.131 34.5994 606.672 34.0199C607.213 33.4361 607.848 32.9929 608.577 32.6903C609.305 32.3835 610.098 32.2301 610.955 32.2301C611.679 32.2301 612.354 32.3366 612.981 32.5497C613.607 32.7585 614.163 33.0568 614.649 33.4446C615.139 33.8324 615.542 34.2926 615.857 34.8253C616.173 35.358 616.379 35.946 616.477 36.5895H614.061ZM626.411 32.4091H628.783V40.9616C628.783 41.8991 628.561 42.7237 628.118 43.4354C627.679 44.147 627.061 44.7031 626.264 45.1037C625.467 45.5 624.536 45.6982 623.471 45.6982C622.401 45.6982 621.468 45.5 620.671 45.1037C619.874 44.7031 619.256 44.147 618.817 43.4354C618.379 42.7237 618.159 41.8991 618.159 40.9616V32.4091H620.531V40.7635C620.531 41.3089 620.65 41.7947 620.888 42.2209C621.131 42.647 621.472 42.9815 621.911 43.2244C622.35 43.4631 622.87 43.5824 623.471 43.5824C624.072 43.5824 624.592 43.4631 625.031 43.2244C625.474 42.9815 625.815 42.647 626.053 42.2209C626.292 41.7947 626.411 41.3089 626.411 40.7635V32.4091ZM641.398 32.4091V45.5H639.289L633.12 36.5831H633.012V45.5H630.64V32.4091H632.762L638.924 41.3324H639.039V32.4091H641.398ZM647.698 45.5H643.262V32.4091H647.788C649.087 32.4091 650.204 32.6712 651.137 33.1953C652.075 33.7152 652.795 34.4631 653.298 35.4389C653.8 36.4148 654.052 37.5824 654.052 38.9418C654.052 40.3054 653.798 41.4773 653.291 42.4574C652.788 43.4375 652.062 44.1896 651.111 44.7138C650.165 45.2379 649.028 45.5 647.698 45.5ZM645.634 43.4482H647.583C648.495 43.4482 649.256 43.282 649.865 42.9496C650.474 42.6129 650.933 42.1122 651.239 41.4474C651.546 40.7784 651.7 39.9432 651.7 38.9418C651.7 37.9403 651.546 37.1094 651.239 36.4489C650.933 35.7841 650.479 35.2876 649.878 34.9595C649.281 34.6271 648.54 34.4609 647.653 34.4609H645.634V43.4482ZM656.563 45.5H654.032L658.64 32.4091H661.568L666.183 45.5H663.652L660.155 35.0938H660.053L656.563 45.5ZM656.646 40.3672H663.55V42.272H656.646V40.3672ZM667.187 32.4091H670.089L673.976 41.8949H674.129L678.015 32.4091H680.917V45.5H678.642V36.5064H678.52L674.902 45.4616H673.202L669.584 36.4872H669.463V45.5H667.187V32.4091Z" fill="white"/>
<path d="M743 29.25V47.75" stroke="white" stroke-width="1.5" stroke-linecap="square"/>
<path d="M752.25 38.5L733.75 38.5" stroke="white" stroke-width="1.5" stroke-linecap="square"/>
<path d="M749.541 31.9595L736.46 45.0409" stroke="white" stroke-width="1.5" stroke-linecap="square"/>
<path d="M749.541 45.0405L736.46 31.9591" stroke="white" stroke-width="1.5" stroke-linecap="square"/>
<path d="M816.824 31.1L815.402 31.676C815.888 32.378 816.446 33.44 816.824 34.178L818.264 33.566C817.922 32.9 817.274 31.766 816.824 31.1ZM818.966 30.29L817.544 30.866C818.03 31.55 818.606 32.594 818.984 33.35L820.406 32.738C820.1 32.108 819.434 30.956 818.966 30.29ZM812.216 31.262H809.552C809.624 31.694 809.696 32.504 809.696 32.918C809.678 37.652 808.85 40.712 806.492 43.052C805.772 43.79 804.872 44.402 804.116 44.816L806.222 46.508C810.2 43.664 811.892 40.028 812.09 32.864C812.108 32.432 812.162 31.676 812.216 31.262ZM818.318 35.114L816.77 34.358C816.338 34.43 815.87 34.484 815.402 34.484H807.068C806.384 34.484 805.466 34.43 804.71 34.358V36.716C805.466 36.644 806.474 36.644 807.086 36.644H815.87C815.87 38.588 815.618 42.188 815.096 43.322C814.916 43.754 814.664 43.952 814.088 43.952C813.368 43.952 812.45 43.862 811.55 43.7L811.838 46.112C812.72 46.184 813.782 46.256 814.826 46.256C816.05 46.256 816.752 45.788 817.13 44.87C817.904 43.034 818.138 38.012 818.21 36.068C818.21 35.87 818.264 35.402 818.318 35.114ZM824.618 31.82L822.908 33.638C824.222 34.538 826.49 36.5 827.426 37.508L829.262 35.636C828.2 34.538 825.86 32.666 824.618 31.82ZM822.35 43.808L823.88 46.184C826.4 45.752 828.722 44.762 830.558 43.664C833.456 41.918 835.85 39.434 837.2 36.986L835.814 34.466C834.662 36.896 832.322 39.632 829.244 41.468C827.498 42.494 825.176 43.412 822.35 43.808ZM851.582 30.722L850.142 31.316C850.628 32 851.186 33.08 851.564 33.8L853.004 33.188C852.662 32.522 852.032 31.388 851.582 30.722ZM853.706 29.912L852.284 30.488C852.77 31.172 853.346 32.216 853.724 32.972L855.164 32.36C854.84 31.73 854.174 30.578 853.706 29.912ZM844.832 37.508L843.248 39.146C845.354 40.478 848.756 42.98 850.34 44.456L852.05 42.422C850.394 41.09 847.046 38.786 844.832 37.508ZM853.31 34.448L851.474 33.314C851.078 33.44 850.466 33.53 849.908 33.53H844.796L843.95 35.564H850.052C849.71 36.968 848.594 39.02 847.37 40.46C845.84 42.26 843.68 44.15 839.918 45.32L842.006 47.12C845.444 45.824 847.766 43.808 849.458 41.702C851.06 39.704 852.158 37.4 852.716 35.744C852.878 35.294 853.112 34.79 853.31 34.448ZM847.352 31.676L844.76 30.866C844.598 31.478 844.202 32.306 843.932 32.756C843.032 34.304 841.358 36.788 838.208 38.732L840.152 40.226C842.726 38.444 845.03 35.69 846.254 33.512C846.47 33.134 846.92 32.306 847.352 31.676ZM864.812 31.928L861.95 31.352C861.878 31.946 861.788 32.522 861.536 33.422C860.942 35.51 859.07 41.414 858.098 43.718L860.744 43.628C861.518 41.756 863.39 35.96 864.056 33.944C864.326 33.134 864.578 32.468 864.812 31.928ZM868.034 37.742L865.802 38.678C867.08 40.406 868.754 44.132 869.564 46.31L871.994 45.23C871.166 43.232 869.33 39.686 868.034 37.742ZM857.918 42.908C857.342 42.926 856.55 42.944 855.938 42.926L856.37 45.572C856.928 45.5 857.612 45.41 858.062 45.356C860.492 45.104 866.684 44.456 869.348 44.114L868.826 41.81C866.306 42.152 860.42 42.818 857.918 42.908ZM877.664 31.262L876.368 33.242C877.556 33.908 879.428 35.114 880.436 35.816L881.768 33.836C880.832 33.17 878.852 31.91 877.664 31.262ZM874.334 44.042L875.684 46.4C877.268 46.112 879.86 45.212 881.696 44.186C884.63 42.476 887.186 40.208 888.842 37.706L887.456 35.258C886.034 37.832 883.514 40.298 880.454 42.008C878.492 43.088 876.35 43.7 874.334 44.042ZM874.892 35.366L873.596 37.346C874.802 37.994 876.674 39.2 877.682 39.92L879.014 37.904C878.078 37.238 876.098 36.014 874.892 35.366ZM903.836 31.532H901.118C901.19 32.036 901.244 32.612 901.244 33.35C901.244 34.124 901.244 35.852 901.244 36.752C901.244 39.56 900.992 40.91 899.768 42.26C898.67 43.43 897.23 44.114 895.43 44.528L897.32 46.526C898.634 46.094 900.488 45.23 901.676 43.916C903.026 42.44 903.782 40.784 903.782 36.896C903.782 36.014 903.782 34.268 903.782 33.35C903.782 32.612 903.8 32.036 903.836 31.532ZM895.502 31.694H892.892C892.946 32.108 892.964 32.738 892.964 33.062C892.964 33.854 892.964 38.102 892.964 39.128C892.964 39.686 892.91 40.388 892.874 40.712H895.502C895.466 40.298 895.43 39.596 895.43 39.146C895.43 38.138 895.43 33.854 895.43 33.062C895.43 32.504 895.466 32.108 895.502 31.694ZM908.318 37.166V40.01C909.002 39.956 910.208 39.902 911.216 39.902C913.34 39.902 919.262 39.902 920.9 39.902C921.656 39.902 922.574 39.992 923.006 40.01V37.166C922.52 37.202 921.728 37.292 920.882 37.292C919.28 37.292 913.34 37.292 911.216 37.292C910.28 37.292 908.984 37.22 908.318 37.166ZM936.888 30.542L935.466 31.118C935.952 31.856 936.492 32.882 936.87 33.62L938.31 33.008C938.022 32.378 937.356 31.226 936.888 30.542ZM939.156 29.912L937.734 30.488C938.202 31.172 938.796 32.216 939.174 32.972L940.614 32.36C940.29 31.73 939.624 30.578 939.156 29.912ZM937.698 33.746L936.24 32.648C935.862 32.774 935.16 32.882 934.368 32.882C933.576 32.882 928.968 32.882 928.014 32.882C927.492 32.882 926.376 32.81 925.89 32.738V35.312C926.286 35.276 927.276 35.186 928.014 35.186C928.788 35.186 933.378 35.186 934.134 35.186C933.72 36.464 932.622 38.246 931.434 39.596C929.742 41.486 926.97 43.664 924.054 44.762L925.926 46.706C928.716 45.374 931.434 43.142 933.45 40.82C934.998 39.02 936.33 36.572 937.068 34.862C937.23 34.484 937.554 33.944 937.698 33.746ZM933.684 39.326L931.992 41C933.918 42.746 935.88 44.888 937.212 46.742L939.264 44.96C938.094 43.52 935.538 40.838 933.684 39.326Z" fill="white"/>
<path d="M1002 29.25V47.75" stroke="white" stroke-width="1.5" stroke-linecap="square"/>
<path d="M1011.25 38.5L992.75 38.5" stroke="white" stroke-width="1.5" stroke-linecap="square"/>
<path d="M1008.54 31.9595L995.46 45.0409" stroke="white" stroke-width="1.5" stroke-linecap="square"/>
<path d="M1008.54 45.0405L995.46 31.9591" stroke="white" stroke-width="1.5" stroke-linecap="square"/>
<path d="M1072.06 36.5895C1071.95 36.2443 1071.81 35.9354 1071.62 35.6626C1071.44 35.3857 1071.22 35.1491 1070.96 34.9531C1070.7 34.7571 1070.41 34.6101 1070.07 34.5121C1069.74 34.4098 1069.38 34.3587 1068.99 34.3587C1068.28 34.3587 1067.66 34.5355 1067.11 34.8892C1066.56 35.2429 1066.13 35.7628 1065.81 36.4489C1065.5 37.1307 1065.34 37.9616 1065.34 38.9418C1065.34 39.9304 1065.5 40.7678 1065.81 41.4538C1066.12 42.1399 1066.55 42.6619 1067.11 43.0199C1067.66 43.3736 1068.3 43.5504 1069.04 43.5504C1069.7 43.5504 1070.28 43.4226 1070.76 43.1669C1071.25 42.9112 1071.63 42.549 1071.89 42.0803C1072.16 41.6072 1072.29 41.0533 1072.29 40.4183L1072.83 40.5014H1069.27V38.6477H1074.59V40.2202C1074.59 41.3409 1074.35 42.3104 1073.87 43.1286C1073.39 43.9467 1072.74 44.5774 1071.9 45.0206C1071.07 45.4595 1070.11 45.679 1069.02 45.679C1067.82 45.679 1066.76 45.4084 1065.85 44.8672C1064.94 44.3217 1064.23 43.5483 1063.72 42.5469C1063.21 41.5412 1062.96 40.348 1062.96 38.9673C1062.96 37.9105 1063.11 36.9666 1063.41 36.1357C1063.71 35.3047 1064.13 34.5994 1064.67 34.0199C1065.21 33.4361 1065.85 32.9929 1066.58 32.6903C1067.31 32.3835 1068.1 32.2301 1068.95 32.2301C1069.68 32.2301 1070.35 32.3366 1070.98 32.5497C1071.61 32.7585 1072.16 33.0568 1072.65 33.4446C1073.14 33.8324 1073.54 34.2926 1073.86 34.8253C1074.17 35.358 1074.38 35.946 1074.48 36.5895H1072.06ZM1084.41 32.4091H1086.78V40.9616C1086.78 41.8991 1086.56 42.7237 1086.12 43.4354C1085.68 44.147 1085.06 44.7031 1084.26 45.1037C1083.47 45.5 1082.54 45.6982 1081.47 45.6982C1080.4 45.6982 1079.47 45.5 1078.67 45.1037C1077.87 44.7031 1077.26 44.147 1076.82 43.4354C1076.38 42.7237 1076.16 41.8991 1076.16 40.9616V32.4091H1078.53V40.7635C1078.53 41.3089 1078.65 41.7947 1078.89 42.2209C1079.13 42.647 1079.47 42.9815 1079.91 43.2244C1080.35 43.4631 1080.87 43.5824 1081.47 43.5824C1082.07 43.5824 1082.59 43.4631 1083.03 43.2244C1083.47 42.9815 1083.81 42.647 1084.05 42.2209C1084.29 41.7947 1084.41 41.3089 1084.41 40.7635V32.4091ZM1099.4 32.4091V45.5H1097.29L1091.12 36.5831H1091.01V45.5H1088.64V32.4091H1090.76L1096.92 41.3324H1097.04V32.4091H1099.4ZM1105.7 45.5H1101.26V32.4091H1105.79C1107.09 32.4091 1108.2 32.6712 1109.14 33.1953C1110.07 33.7152 1110.79 34.4631 1111.3 35.4389C1111.8 36.4148 1112.05 37.5824 1112.05 38.9418C1112.05 40.3054 1111.8 41.4773 1111.29 42.4574C1110.79 43.4375 1110.06 44.1896 1109.11 44.7138C1108.17 45.2379 1107.03 45.5 1105.7 45.5ZM1103.63 43.4482H1105.58C1106.5 43.4482 1107.26 43.282 1107.87 42.9496C1108.47 42.6129 1108.93 42.1122 1109.24 41.4474C1109.55 40.7784 1109.7 39.9432 1109.7 38.9418C1109.7 37.9403 1109.55 37.1094 1109.24 36.4489C1108.93 35.7841 1108.48 35.2876 1107.88 34.9595C1107.28 34.6271 1106.54 34.4609 1105.65 34.4609H1103.63V43.4482ZM1114.56 45.5H1112.03L1116.64 32.4091H1119.57L1124.18 45.5H1121.65L1118.16 35.0938H1118.05L1114.56 45.5ZM1114.65 40.3672H1121.55V42.272H1114.65V40.3672ZM1125.19 32.4091H1128.09L1131.98 41.8949H1132.13L1136.02 32.4091H1138.92V45.5H1136.64V36.5064H1136.52L1132.9 45.4616H1131.2L1127.58 36.4872H1127.46V45.5H1125.19V32.4091Z" fill="white"/>
<path d="M1201 29.25V47.75" stroke="white" stroke-width="1.5" stroke-linecap="square"/>
<path d="M1210.25 38.5L1191.75 38.5" stroke="white" stroke-width="1.5" stroke-linecap="square"/>
<path d="M1207.54 31.9595L1194.46 45.0409" stroke="white" stroke-width="1.5" stroke-linecap="square"/>
<path d="M1207.54 45.0405L1194.46 31.9591" stroke="white" stroke-width="1.5" stroke-linecap="square"/>
<path d="M1274.82 31.1L1273.4 31.676C1273.89 32.378 1274.45 33.44 1274.82 34.178L1276.26 33.566C1275.92 32.9 1275.27 31.766 1274.82 31.1ZM1276.97 30.29L1275.54 30.866C1276.03 31.55 1276.61 32.594 1276.98 33.35L1278.41 32.738C1278.1 32.108 1277.43 30.956 1276.97 30.29ZM1270.22 31.262H1267.55C1267.62 31.694 1267.7 32.504 1267.7 32.918C1267.68 37.652 1266.85 40.712 1264.49 43.052C1263.77 43.79 1262.87 44.402 1262.12 44.816L1264.22 46.508C1268.2 43.664 1269.89 40.028 1270.09 32.864C1270.11 32.432 1270.16 31.676 1270.22 31.262ZM1276.32 35.114L1274.77 34.358C1274.34 34.43 1273.87 34.484 1273.4 34.484H1265.07C1264.38 34.484 1263.47 34.43 1262.71 34.358V36.716C1263.47 36.644 1264.47 36.644 1265.09 36.644H1273.87C1273.87 38.588 1273.62 42.188 1273.1 43.322C1272.92 43.754 1272.66 43.952 1272.09 43.952C1271.37 43.952 1270.45 43.862 1269.55 43.7L1269.84 46.112C1270.72 46.184 1271.78 46.256 1272.83 46.256C1274.05 46.256 1274.75 45.788 1275.13 44.87C1275.9 43.034 1276.14 38.012 1276.21 36.068C1276.21 35.87 1276.26 35.402 1276.32 35.114ZM1282.62 31.82L1280.91 33.638C1282.22 34.538 1284.49 36.5 1285.43 37.508L1287.26 35.636C1286.2 34.538 1283.86 32.666 1282.62 31.82ZM1280.35 43.808L1281.88 46.184C1284.4 45.752 1286.72 44.762 1288.56 43.664C1291.46 41.918 1293.85 39.434 1295.2 36.986L1293.81 34.466C1292.66 36.896 1290.32 39.632 1287.24 41.468C1285.5 42.494 1283.18 43.412 1280.35 43.808ZM1309.58 30.722L1308.14 31.316C1308.63 32 1309.19 33.08 1309.56 33.8L1311 33.188C1310.66 32.522 1310.03 31.388 1309.58 30.722ZM1311.71 29.912L1310.28 30.488C1310.77 31.172 1311.35 32.216 1311.72 32.972L1313.16 32.36C1312.84 31.73 1312.17 30.578 1311.71 29.912ZM1302.83 37.508L1301.25 39.146C1303.35 40.478 1306.76 42.98 1308.34 44.456L1310.05 42.422C1308.39 41.09 1305.05 38.786 1302.83 37.508ZM1311.31 34.448L1309.47 33.314C1309.08 33.44 1308.47 33.53 1307.91 33.53H1302.8L1301.95 35.564H1308.05C1307.71 36.968 1306.59 39.02 1305.37 40.46C1303.84 42.26 1301.68 44.15 1297.92 45.32L1300.01 47.12C1303.44 45.824 1305.77 43.808 1307.46 41.702C1309.06 39.704 1310.16 37.4 1310.72 35.744C1310.88 35.294 1311.11 34.79 1311.31 34.448ZM1305.35 31.676L1302.76 30.866C1302.6 31.478 1302.2 32.306 1301.93 32.756C1301.03 34.304 1299.36 36.788 1296.21 38.732L1298.15 40.226C1300.73 38.444 1303.03 35.69 1304.25 33.512C1304.47 33.134 1304.92 32.306 1305.35 31.676ZM1322.81 31.928L1319.95 31.352C1319.88 31.946 1319.79 32.522 1319.54 33.422C1318.94 35.51 1317.07 41.414 1316.1 43.718L1318.74 43.628C1319.52 41.756 1321.39 35.96 1322.06 33.944C1322.33 33.134 1322.58 32.468 1322.81 31.928ZM1326.03 37.742L1323.8 38.678C1325.08 40.406 1326.75 44.132 1327.56 46.31L1329.99 45.23C1329.17 43.232 1327.33 39.686 1326.03 37.742ZM1315.92 42.908C1315.34 42.926 1314.55 42.944 1313.94 42.926L1314.37 45.572C1314.93 45.5 1315.61 45.41 1316.06 45.356C1318.49 45.104 1324.68 44.456 1327.35 44.114L1326.83 41.81C1324.31 42.152 1318.42 42.818 1315.92 42.908ZM1335.66 31.262L1334.37 33.242C1335.56 33.908 1337.43 35.114 1338.44 35.816L1339.77 33.836C1338.83 33.17 1336.85 31.91 1335.66 31.262ZM1332.33 44.042L1333.68 46.4C1335.27 46.112 1337.86 45.212 1339.7 44.186C1342.63 42.476 1345.19 40.208 1346.84 37.706L1345.46 35.258C1344.03 37.832 1341.51 40.298 1338.45 42.008C1336.49 43.088 1334.35 43.7 1332.33 44.042ZM1332.89 35.366L1331.6 37.346C1332.8 37.994 1334.67 39.2 1335.68 39.92L1337.01 37.904C1336.08 37.238 1334.1 36.014 1332.89 35.366ZM1361.84 31.532H1359.12C1359.19 32.036 1359.24 32.612 1359.24 33.35C1359.24 34.124 1359.24 35.852 1359.24 36.752C1359.24 39.56 1358.99 40.91 1357.77 42.26C1356.67 43.43 1355.23 44.114 1353.43 44.528L1355.32 46.526C1356.63 46.094 1358.49 45.23 1359.68 43.916C1361.03 42.44 1361.78 40.784 1361.78 36.896C1361.78 36.014 1361.78 34.268 1361.78 33.35C1361.78 32.612 1361.8 32.036 1361.84 31.532ZM1353.5 31.694H1350.89C1350.95 32.108 1350.96 32.738 1350.96 33.062C1350.96 33.854 1350.96 38.102 1350.96 39.128C1350.96 39.686 1350.91 40.388 1350.87 40.712H1353.5C1353.47 40.298 1353.43 39.596 1353.43 39.146C1353.43 38.138 1353.43 33.854 1353.43 33.062C1353.43 32.504 1353.47 32.108 1353.5 31.694ZM1366.32 37.166V40.01C1367 39.956 1368.21 39.902 1369.22 39.902C1371.34 39.902 1377.26 39.902 1378.9 39.902C1379.66 39.902 1380.57 39.992 1381.01 40.01V37.166C1380.52 37.202 1379.73 37.292 1378.88 37.292C1377.28 37.292 1371.34 37.292 1369.22 37.292C1368.28 37.292 1366.98 37.22 1366.32 37.166ZM1394.89 30.542L1393.47 31.118C1393.95 31.856 1394.49 32.882 1394.87 33.62L1396.31 33.008C1396.02 32.378 1395.36 31.226 1394.89 30.542ZM1397.16 29.912L1395.73 30.488C1396.2 31.172 1396.8 32.216 1397.17 32.972L1398.61 32.36C1398.29 31.73 1397.62 30.578 1397.16 29.912ZM1395.7 33.746L1394.24 32.648C1393.86 32.774 1393.16 32.882 1392.37 32.882C1391.58 32.882 1386.97 32.882 1386.01 32.882C1385.49 32.882 1384.38 32.81 1383.89 32.738V35.312C1384.29 35.276 1385.28 35.186 1386.01 35.186C1386.79 35.186 1391.38 35.186 1392.13 35.186C1391.72 36.464 1390.62 38.246 1389.43 39.596C1387.74 41.486 1384.97 43.664 1382.05 44.762L1383.93 46.706C1386.72 45.374 1389.43 43.142 1391.45 40.82C1393 39.02 1394.33 36.572 1395.07 34.862C1395.23 34.484 1395.55 33.944 1395.7 33.746ZM1391.68 39.326L1389.99 41C1391.92 42.746 1393.88 44.888 1395.21 46.742L1397.26 44.96C1396.09 43.52 1393.54 40.838 1391.68 39.326Z" fill="white"/>
</g>
<defs>
<clipPath id="clip0_29344_13348">
<rect width="1440" height="77" fill="white"/>
</clipPath>
</defs>
</svg>
